<?xml version="1.0" encoding="utf-8"?>
<!-- Generator: Adobe Illustrator 22.1.0, SVG Export Plug-In . SVG Version: 6.00 Build 0)  -->
<svg version="1.1" id="Layer_1" xmlns="http://www.w3.org/2000/svg" xmlns:xlink="http://www.w3.org/1999/xlink" x="0px" y="0px"
	 viewBox="0 0 739.4 198.5" style="enable-background:new 0 0 739.4 198.5;" xml:space="preserve">
<style type="text/css">
	.st0{fill:#8DC63F;}
	.st1{fill-rule:evenodd;clip-rule:evenodd;fill:#8DC63F;}
</style>
<g>
	<path class="st0" d="M202.4,116.6l4.9-17.8h48.3l-10,36.6c-10.7,5.3-19.9,9-27.5,10.9c-7.6,1.9-16.3,2.9-26.1,2.9
		c-12,0-21.3-1.7-27.9-5.2c-6.6-3.5-11.1-8.6-13.3-15.5c-2.3-6.9-2.2-14.7,0.2-23.6c2.6-9.4,7.1-17.5,13.5-24.4
		c6.5-6.9,14.6-12.2,24.3-15.8c7.6-2.8,17.2-4.2,28.8-4.2c11.2,0,19.3,0.9,24.4,2.6c5.1,1.7,8.9,4.4,11.6,8
		c2.7,3.6,4.2,8.2,4.5,13.7l-31.4,4.6c-0.4-3.2-1.8-5.7-4.3-7.4c-2.5-1.7-6-2.6-10.6-2.6c-6.9,0-12.9,2-18,6
		c-5.2,4.1-9,10.4-11.4,19.2c-2.5,9.3-2.3,15.9,0.8,19.9c3,4,8.2,6,15.6,6c3.5,0,6.9-0.4,10.3-1.3c3.4-0.9,7.5-2.3,12.1-4.4l2.2-8.1
		H202.4z M254.8,147.6l23.5-85.8h52.1c9.6,0,16.8,0.7,21.5,2.1c4.7,1.4,8.1,4,10.2,7.8c2.1,3.8,2.4,8.4,0.9,13.9
		c-1.3,4.8-3.6,8.9-6.9,12.3c-3.3,3.5-7.4,6.3-12.2,8.4c-3.1,1.4-7,2.5-11.9,3.4c3.4,1.1,5.8,2.1,7.3,3.2c0.9,0.7,2.2,2.2,3.8,4.5
		c1.6,2.3,2.5,4.1,2.9,5.3l8.3,24.9H319l-9.5-26.2c-1.2-3.4-2.5-5.6-3.9-6.6c-1.9-1.3-4.3-2-7.1-2h-2.8l-9.5,34.8H254.8z
		 M300.1,96.6h13.2c1.4,0,4.3-0.4,8.6-1.2c2.2-0.4,4.1-1.3,5.8-2.7c1.7-1.4,2.8-3.1,3.3-5c0.8-2.8,0.3-4.9-1.4-6.4
		c-1.7-1.5-5.3-2.2-11-2.2h-13.7L300.1,96.6z M381.3,61.9H465l-5,18.3h-52.4l-3.7,13.6h48.6l-4.8,17.5h-48.6l-4.6,16.9h53.9
		l-5.3,19.4h-85.2L381.3,61.9z M476.9,61.9h83.7l-5,18.3h-52.4l-3.7,13.6h48.6l-4.8,17.5h-48.6l-4.6,16.9H544l-5.3,19.4h-85.2
		L476.9,61.9z M572.8,61.9H602l25.1,47.5l13-47.5h29.4l-23.5,85.8h-29.4l-25-47.1l-12.9,47.1h-29.4L572.8,61.9z"/>
	<path class="st1" d="M90.7,60.4c4.1,4,8.4,8.1,11.7,13c1.1,1.7,2.1,3.4,2.8,5.4c0.4,1,0.7,2.1,0.8,3.3c0.5,4.1-1.1,7.1-2.9,9.2
		c-2.5,3-6.2,4.8-11.1,5.3c0,0.8,0,1.6,0,2.4c16.1,0,29.8-2.5,42.7-5.8c2.3,4.5,4.4,9.6,4.4,16.4c0,2.2-0.2,4.3-0.6,6.2
		c-1.5,7.5-5,13.1-9.4,17.8c-2.2,2.3-4.7,4.4-7.3,6.2c-2.7,1.9-5.6,3.5-8.8,4.8c-6.4,2.8-13.8,4.5-22.7,4.5c-4.4,0-8.5-0.5-12.2-1.4
		c-3.7-0.8-7.1-1.9-10.3-3.3c-6.2-2.8-11.7-6.6-15.9-11.2c-2.1-2.3-4-5-5.6-7.9c-1.6-3-2.8-6.3-3.5-10.1c-0.3-1.9-0.6-4.1-0.5-6.3
		c0.1-2.2,0.3-4.2,0.7-6c0.8-3.7,2.2-6.9,3.7-9.9c0,0,0,0,0,0c13,3.2,26.7,5.7,42.5,5.9c0-0.7,0-1.5,0-2.3
		c-5.1-0.4-8.9-2.4-11.5-5.4c-1.9-2.2-3.5-5.1-2.9-9.3c0.2-1.2,0.5-2.2,0.9-3.2c1.5-3.9,4-7,6.6-10c1.9-2.2,4-4.2,6.1-6.3
		C89.2,61.8,90,61,90.7,60.4z M47.6,97.5c-1.3,3.2-2.3,6.8-2.6,11c2,0.5,3.9,0.9,5.9,1.3c0.3-4.7,1.4-8.7,3-12
		c0-0.1,0.1-0.2,0.1-0.3c-1.9-0.4-3.9-0.9-5.8-1.3C48,96.5,47.8,97.1,47.6,97.5z M133.4,96.7c-0.1-0.2-0.1-0.3-0.3-0.3
		c-2,0.5-4.1,0.9-6.1,1.4c1.6,3.6,2.8,7.6,3,12.6c2.2-0.4,4.3-0.9,6.4-1.4C136.2,104.3,135,100.2,133.4,96.7z M53.7,110.4
		c2.6,0.5,5.2,1,7.9,1.3c0.4-4.7,1.5-8.7,3.1-12.2c-2.7-0.4-5.2-0.9-7.8-1.4C55.1,101.5,54,105.5,53.7,110.4z M116.6,99.8
		c1.5,3.6,2.7,7.7,3,12.5c2.6-0.4,5.1-0.8,7.6-1.2c-0.1-4.4-1-8.1-2.4-11.3c-0.2-0.5-0.4-0.9-0.7-1.3
		C121.7,98.9,119.2,99.3,116.6,99.8z M64.3,112.1c3.2,0.4,6.4,0.8,9.7,1.1c0.5-4.6,1.6-8.6,3.2-12.2c-3.3-0.3-6.5-0.7-9.7-1.2
		C65.8,103.3,64.7,107.4,64.3,112.1z M104.3,101.2c0.3,0.9,0.7,1.8,1.1,2.8c1,2.9,1.8,6,2.1,9.6c3.2-0.2,6.4-0.6,9.5-0.9
		c-0.3-4.8-1.4-8.9-3.1-12.4C110.7,100.6,107.5,101,104.3,101.2z M76.7,113.5c4.1,0.3,8.2,0.5,12.6,0.6c0-4.1,0-8.3,0-12.4
		c-3.1-0.1-6.2-0.2-9.1-0.4C78.4,104.8,77.3,108.8,76.7,113.5z M101.6,102.1c-0.1-0.2-0.3-0.6-0.3-0.6c-0.1,0-0.2,0-0.2,0
		c-2.9,0.1-5.9,0.3-9,0.3c0,4.1,0,8.3,0,12.4c4.3,0,8.6-0.1,12.6-0.4C104.2,109.4,103.1,105.4,101.6,102.1z M45.1,111.4
		c0.3,4.4,1.4,7.9,2.8,11c1.4,0.3,2.9,0.7,4.3,1c-0.8-3.3-1.3-6.8-1.4-10.8C48.9,112.2,47,111.8,45.1,111.4
		C45.1,111.4,45.1,111.4,45.1,111.4z M130,113.3c-0.1,4-0.7,7.5-1.5,10.8c1.6-0.3,3.1-0.7,4.7-1.1c1.4-2.7,2.4-5.9,2.9-9.5
		c0.1-0.5,0.2-1,0.1-1.6C134.2,112.4,132.1,112.8,130,113.3z M53.7,113.2c0.1,4,0.7,7.6,1.6,10.9c2.3,0.5,4.7,0.9,7,1.3
		c-0.6-3.4-0.9-7-0.8-10.9C58.8,114.1,56.2,113.6,53.7,113.2C53.7,113.2,53.7,113.2,53.7,113.2z M119.7,115
		c0.1,3.9-0.3,7.5-0.9,10.9c2.3-0.3,4.5-0.8,6.7-1.2c0.8-3.2,1.5-6.7,1.7-10.6c0-0.1,0.1-0.3,0-0.3
		C124.7,114.2,122.2,114.6,119.7,115z M64.2,114.9c-0.1,4,0.4,7.6,0.9,10.9c3,0.4,6.1,0.9,9.2,1.2c-0.5-3.4-0.7-7.2-0.6-11
		C70.5,115.7,67.3,115.3,64.2,114.9C64.2,114.9,64.2,114.9,64.2,114.9z M117,115.6c0-0.2,0-0.3-0.1-0.3c0,0,0,0-0.1,0
		c-2.9,0.4-6.1,0.6-9.2,0.9c0.2,3.9-0.1,7.6-0.6,11c3.1-0.3,6-0.6,9-1C116.5,123.1,117.1,119.5,117,115.6z M77.2,127.3
		c3.9,0.4,8,0.6,12.1,0.6c0-3.7,0-7.4,0-11.1c-4.4-0.1-8.6-0.3-12.7-0.6C76.3,120.1,76.7,123.9,77.2,127.3z M92,116.9
		c0,3.7,0,7.4,0,11.1c4.2,0,8.2-0.1,12.1-0.4c0.5-3.2,0.8-7,0.7-10.8c0-0.1,0.1-0.3-0.1-0.3C100.7,116.7,96.4,116.9,92,116.9z
		 M54.8,132.2c-0.7-1.9-1.2-3.8-1.8-5.8c-1.1-0.2-2.3-0.5-3.3-0.7C51.1,128.1,52.9,130.3,54.8,132.2z M127.8,127
		c-0.6,2-1.2,4-1.8,5.8c0.1,0,0.1-0.1,0.2-0.1c2-2,3.8-4.1,5.3-6.5c0,0,0,0,0,0C130.2,126.5,129,126.8,127.8,127z M56,127.1
		c0.7,2.5,1.5,4.8,2.4,7.2c2,0.6,4.2,1.1,6.3,1.7c-0.7-2.5-1.4-5-1.9-7.6C60.5,127.9,58.3,127.5,56,127.1z M124.2,129.3
		c0.1-0.4,0.4-1,0.5-1.5c0-0.2,0-0.2-0.1-0.1c-2,0.4-4.2,0.7-6.3,1.1c-0.5,2.5-1.2,4.9-1.8,7.3c2.1-0.5,4.1-1,6.1-1.7
		C123.1,132.8,123.7,131,124.2,129.3z M65.7,128.8c0.6,2.7,1.3,5.3,2.1,7.8c2.9,0.6,5.8,1.1,8.8,1.5c-0.7-2.7-1.3-5.4-1.8-8.2
		C71.7,129.5,68.7,129.1,65.7,128.8C65.7,128.7,65.7,128.7,65.7,128.8z M106.5,130.1c-0.5,2.8-1.1,5.4-1.8,8.1
		c3-0.4,5.8-0.9,8.6-1.4c0.7-2.4,1.4-4.9,2-7.5c0,0,0,0,0,0C112.5,129.6,109.5,129.9,106.5,130.1z M77.6,130.2
		c0.5,2.9,1.2,5.6,1.9,8.2c3.1,0.3,6.4,0.5,9.7,0.6c0-2.8,0-5.5,0-8.3C85.3,130.6,81.4,130.4,77.6,130.2
		C77.6,130.1,77.6,130.1,77.6,130.2z M92,130.7c0,2.8,0,5.5,0,8.3c3.4,0,6.6-0.2,9.8-0.5c0.7-2.6,1.4-5.4,1.9-8.2
		C99.9,130.6,96.1,130.7,92,130.7z M66.1,140.6c-0.2-0.6-0.4-1.1-0.5-1.7c-1.3-0.3-2.6-0.6-3.9-0.9
		C63.2,138.9,64.6,139.8,66.1,140.6z M119.5,138.1c-1.3,0.3-2.6,0.7-4,1c-0.2,0.5-0.4,1.1-0.5,1.6C116.6,139.9,118,139,119.5,138.1z
		 M69.6,142.2c2.8,1.2,5.8,2.2,9.1,2.9c-0.4-1.4-0.9-2.8-1.3-4.1c-3-0.4-5.9-0.8-8.7-1.4C69,140.4,69.3,141.3,69.6,142.2z
		 M112.3,140c0.1-0.2,0.2-0.3-0.1-0.3c-1.2,0.3-2.7,0.5-4.1,0.7c-1.4,0.2-2.9,0.4-4.2,0.6c-0.4,1.4-0.8,2.7-1.2,4
		c3.2-0.7,6.1-1.6,8.8-2.8C111.8,141.6,112.1,140.7,112.3,140z M80.4,141.2c0.4,1.5,0.9,3,1.4,4.4c2.4,0.4,4.9,0.6,7.6,0.7
		c0-1.5,0-3.1,0-4.6C86.2,141.7,83.2,141.5,80.4,141.2z M100.9,141.6c0.1-0.2,0.1-0.2-0.1-0.2c-2.7,0.3-5.7,0.4-8.8,0.4
		c0,1.5,0,3.1,0,4.6c2.7,0,5.2-0.3,7.6-0.7C100,144.4,100.5,142.9,100.9,141.6z"/>
	<g>
		<path class="st1" d="M684.8,61.9c1,0,2,0.1,2.9,0.3c1.7,0.4,3.2,1,4.5,1.9c1.9,1.2,3.4,3,4.4,5.1c0.8,1.8,1.4,4,1.2,6.6
			c-0.2,2.4-1,4.2-2.1,5.8c-1.3,1.9-2.9,3.4-5.1,4.4c-1.5,0.7-3.1,1.1-5.1,1.2c-1,0-2-0.1-2.9-0.3c-2.6-0.6-4.6-1.7-6.2-3.3
			c-0.5-0.5-1-1.1-1.5-1.7c-0.4-0.6-0.8-1.3-1.2-2c-0.7-1.5-1.1-3.1-1.2-5.1c0-1,0.1-2,0.3-2.9c0.6-2.6,1.8-4.6,3.3-6.2
			c0.5-0.5,1.1-1,1.7-1.4c1.5-1.1,3.4-1.9,5.7-2.3C683.8,61.9,684.3,61.9,684.8,61.9z M680.7,65.5c-2.3,1.1-3.9,2.8-4.9,5.2
			c-0.5,1.1-0.9,2.6-0.8,4.2c0.1,1.6,0.4,2.9,1,4c1.1,2.3,2.8,3.9,5.1,4.9c1.2,0.5,2.6,0.9,4.2,0.8c2.3-0.1,4.2-0.9,5.6-1.9
			c1.5-1,2.6-2.5,3.3-4.2c0.2-0.6,0.5-1.2,0.6-1.9c0.1-0.7,0.2-1.5,0.2-2.3c-0.1-1.5-0.4-2.9-1-4c-0.6-1.2-1.2-2.1-2.1-2.9
			c-0.9-0.8-1.9-1.5-3.1-2c-1.1-0.5-2.6-0.9-4.2-0.8C683.1,64.6,681.9,64.9,680.7,65.5z"/>
		<path class="st1" d="M687.6,74.8c0.4,0.4,0.7,0.7,1,1.2c0.5,1,0.7,2.3,1,3.5c0.1,0.4,0.2,0.9,0.4,1.3c0.1,0.1,0.1,0.3,0.1,0.4
			c0,0.2-0.2,0.4-0.4,0.4c-0.3,0.1-0.7,0-1,0c-0.2,0-0.4,0-0.5,0c-0.2,0-0.4,0-0.6-0.1c-0.1,0-0.1-0.1-0.1-0.2
			c-0.1-0.3-0.2-0.6-0.3-0.9c-0.1-0.3-0.2-0.7-0.2-1c-0.3-1.3-0.4-2.9-1.5-3.4c-0.5-0.3-1.4-0.2-2.2-0.2c0,1.6,0,3.2,0,4.9
			c0,0.4,0,0.8-0.3,0.9c-0.2,0.1-0.6,0-0.9,0c-0.4,0-0.7,0-1,0c-0.3,0-0.4-0.2-0.5-0.5c0-0.3,0-0.6,0-0.9c0-3.9,0-7.9,0-11.8
			c0-0.5,0-0.8,0.2-1c0.2-0.1,0.5-0.1,0.7-0.1c0.7-0.1,1.5-0.2,2.2-0.2c1.3-0.1,2.6,0.1,3.5,0.4c1.4,0.5,2.4,1.6,2.5,3.3
			c0.1,0.6,0,1.2-0.2,1.7C689,73.6,688.4,74.3,687.6,74.8z M684.8,73.6c0.8-0.1,1.5-0.4,1.8-0.9c0.1-0.2,0.2-0.4,0.3-0.6
			c0.1-0.3,0.1-0.7,0-1.1c0-0.2-0.2-0.4-0.3-0.6c-0.2-0.3-0.6-0.5-1-0.7c-0.7-0.3-1.8-0.2-2.6-0.1c0,1.4,0,2.7,0,4.1
			C683.7,73.6,684.3,73.6,684.8,73.6z"/>
	</g>
</g>
</svg>
